<svg width="125" height="74" viewBox="0 0 125 74" fill="none" xmlns="http://www.w3.org/2000/svg">
<g id="delivery 1" clip-path="url(#clip0_116_307)">
<path id="bus" d="M24.0205 57.11C24.0205 60.976 27.1545 64.11 31.0205 64.11H33.4905C35.0369 70.7871 41.7034 74.9464 48.3805 73.4C52.9968 72.3309 56.6014 68.7263 57.6705 64.11H85.7705C87.3169 70.7871 93.9834 74.9464 100.661 73.4C105.277 72.3309 108.881 68.7263 109.951 64.11H113.831C117.696 64.1127 120.833 60.9808 120.835 57.1148C120.835 57.0265 120.834 56.9382 120.831 56.85L120.171 38.86C120.119 37.5593 119.234 36.4404 117.981 36.09L112.981 20.31V14.91C112.981 11.044 109.846 7.91 105.981 7.91H86.5705V7C86.5705 3.13401 83.4365 0 79.5705 0L31.0205 0C27.1545 0 24.0205 3.13401 24.0205 7V41.6V57.11ZM45.5805 67.72C42.0348 67.72 39.1605 64.8457 39.1605 61.3C39.1605 57.7543 42.0348 54.88 45.5805 54.88C49.1262 54.88 52.0005 57.7543 52.0005 61.3C51.995 64.8434 49.1239 67.7145 45.5805 67.72ZM97.8705 67.72C94.3248 67.72 91.4505 64.8457 91.4505 61.3C91.4505 57.7543 94.3248 54.88 97.8705 54.88C101.416 54.88 104.291 57.7543 104.291 61.3C104.285 64.8434 101.414 67.7145 97.8705 67.72ZM111.241 34.72L97.1505 31.72V23.86H107.831L111.241 34.72ZM106.03 13.91C106.583 13.91 107.03 14.3577 107.03 14.91V17.86H94.1505C92.4936 17.86 91.1505 19.2032 91.1505 20.86V34.1C91.152 35.5129 92.1391 36.7333 93.5205 37.03L114.26 41.46L114.84 57.07C114.84 57.6223 114.393 58.07 113.84 58.07H109.84C108.093 51.4426 101.304 47.4864 94.6769 49.2336C90.3551 50.3729 86.9799 53.7482 85.8405 58.07H57.5705C55.8233 51.4426 49.0344 47.4864 42.4069 49.2336C38.0851 50.3729 34.7098 53.7482 33.5705 58.07H31.0205C30.4682 58.07 30.0205 57.6223 30.0205 57.07V44.39H83.5705C85.2273 44.39 86.5705 43.0468 86.5705 41.39V13.91H106.03ZM30.0305 7C30.0305 6.44772 30.4782 6 31.0305 6H79.5705C80.1228 6 80.5705 6.44772 80.5705 7V38.39H30.0205L30.0305 7Z" fill="white"/>
<path id="line1" d="M5.42383 20.3101H19.8362" stroke="white" stroke-width="3" stroke-linecap="round"/>
<path id="line2" d="M1 29.4609H15.4124" stroke="white" stroke-width="3" stroke-linecap="round"/>
</g>
<defs>
<clipPath id="clip0_116_307">
<rect width="125" height="73.7228" fill="white"/>
</clipPath>
</defs>
</svg>
