<svg width="60" height="55" viewBox="0 0 60 55" fill="none" xmlns="http://www.w3.org/2000/svg">
<g id="delivery-box" clip-path="url(#clip0_118_312)">
<g id="box">
<g id="Group">
<path id="Vector" d="M34.3847 14.0834L12.7158 4.4873L11.906 6.3159L33.5749 15.912L34.3847 14.0834Z" fill="white"/>
</g>
<g id="Group_2">
<path id="Vector_2" d="M23 50.0999L0 40.6999V9.2999L23 -0.100098L46 10.3999V25.9999H44V11.5999L23 2.0999L2 10.6999V39.2999L23 47.8999L31.9 44.6999L32.5 46.5999L23 50.0999Z" fill="white"/>
</g>
<g id="Group_3">
<path id="Vector_3" d="M23.3912 18.0776L1.36426 9.06689L0.607058 10.9179L22.634 19.9286L23.3912 18.0776Z" fill="white"/>
</g>
<g id="Group_4">
<path id="Vector_4" d="M24 49.0001H22V18.3001L44.7 10.1001L45.3 11.9001L24 19.7001V49.0001Z" fill="white"/>
</g>
</g>
<path id="cirkel" d="M45 54.5C36.9761 54.5 30.5 48.0239 30.5 40C30.5 31.9761 36.9761 25.5 45 25.5C53.0239 25.5 59.5 31.9761 59.5 40C59.5 48.0239 53.0239 54.5 45 54.5ZM45 26.5C37.5239 26.5 31.5 32.5239 31.5 40C31.5 47.4761 37.5239 53.5 45 53.5C52.4761 53.5 58.5 47.4761 58.5 40C58.5 32.5239 52.4761 26.5 45 26.5Z" stroke="white"/>
<path id="vinkje" d="M43.8534 43.4534L51.2998 36.0069L51.9927 36.6998L43.4998 45.1927L39.0069 40.6998L39.6998 40.0069L43.1463 43.4534L43.4998 43.8069L43.8534 43.4534Z" stroke="white"/>
</g>
<defs>
<clipPath id="clip0_118_312">
<rect width="60" height="55" fill="white"/>
</clipPath>
</defs>
</svg>
