<?xml version="1.0" encoding="UTF-8"?>
<svg id="uuid-0c5e2750-bd3f-4e33-9148-cfbf59084f12" data-name="Layer 2" xmlns="http://www.w3.org/2000/svg" viewBox="0 0 96.81483 73.72276">
  <defs>
    <style>
      .uuid-65e4bd9a-d8ba-4163-9ba6-43b25eb43d37 {
        stroke-width: 0px;
      }
    </style>
  </defs>
  <g id="uuid-e1a95173-ac9c-45ce-8abd-3b1c79c23bd0" data-name="Layer 1">
    <path class="uuid-65e4bd9a-d8ba-4163-9ba6-43b25eb43d37" d="m0,57.11c0,3.86599,3.13401,7,7,7h2.47c1.5464,6.67712,8.21288,10.8364,14.89,9.29,4.61631-1.06911,8.22088-4.67369,9.29-9.29h28.1c1.54639,6.67712,8.21288,10.8364,14.89,9.29,4.61631-1.06912,8.22088-4.67369,9.29-9.29h3.88c3.86599.00267,7.00216-3.12917,7.00483-6.99517.00006-.08829-.00155-.17659-.00483-.26483l-.66-17.99c-.05174-1.30067-.93636-2.41957-2.19-2.77l-5-15.78v-5.4c0-3.86599-3.13401-7-7-7h-19.41v-.91c0-3.86599-3.13401-7-7-7H7C3.13401,0,0,3.13401,0,7v34.6H0v15.51Zm21.56,10.61c-3.54567,0-6.42-2.87433-6.42-6.42s2.87433-6.42,6.42-6.42,6.42,2.87433,6.42,6.42h0c-.00551,3.54338-2.87662,6.41449-6.42,6.42Zm52.29,0c-3.54567,0-6.42-2.87433-6.42-6.42,0-3.54567,2.87433-6.42,6.42-6.42,3.54566,0,6.42,2.87433,6.42,6.42h0c-.00551,3.54338-2.87662,6.41449-6.42,6.42Zm13.37-33l-14.09-3v-7.86h10.68l3.41,10.86Zm-5.21001-20.81c.55228,0,1,.44772,1,1v2.95h-12.88c-1.65685,0-3,1.34315-3,3v13.24c.00146,1.41291.9886,2.63329,2.37,2.93l20.74,4.43.58,15.61c0,.55228-.44772,1-1,1h-4c-1.74718-6.62742-8.53614-10.58363-15.16356-8.83644-4.3218,1.13935-7.69708,4.51464-8.83644,8.83644h-28.27c-1.74718-6.62742-8.53614-10.58363-15.16356-8.83644-4.3218,1.13935-7.69709,4.51464-8.83644,8.83644h-2.55c-.55229,0-1-.44772-1-1v-12.68h53.55c1.65685,0,3-1.34315,3-3V13.91h19.46ZM6.01,7c0-.55228.44771-1,1-1h48.54c.55228,0,1,.44772,1,1v31.39H6l.01-31.39Z"/>
  </g>
</svg>